<mxfile host="Electron" agent="Mozilla/5.0 (Windows NT 10.0; Win64; x64) AppleWebKit/537.36 (KHTML, like Gecko) draw.io/26.0.4 Chrome/128.0.6613.186 Electron/32.2.5 Safari/537.36" version="26.0.4">
  <diagram name="Page-1" id="GuGQZxUyVCPBfc87iqDN">
    <mxGraphModel dx="1028" dy="673" grid="1" gridSize="10" guides="1" tooltips="1" connect="1" arrows="1" fold="1" page="1" pageScale="1" pageWidth="827" pageHeight="1169" math="0" shadow="0">
      <root>
        <mxCell id="0" />
        <mxCell id="1" parent="0" />
        <mxCell id="i0fOB9PTpOnXMcYM55Mr-39" value="" style="rounded=1;whiteSpace=wrap;html=1;dashed=1;strokeColor=default;fillColor=none;" parent="1" vertex="1">
          <mxGeometry x="552.5" y="130" width="335" height="330" as="geometry" />
        </mxCell>
        <mxCell id="i0fOB9PTpOnXMcYM55Mr-37" value="" style="rounded=1;whiteSpace=wrap;html=1;dashed=1;fillColor=none;" parent="1" vertex="1">
          <mxGeometry x="10" y="115" width="450" height="345" as="geometry" />
        </mxCell>
        <mxCell id="i0fOB9PTpOnXMcYM55Mr-1" value="&lt;font style=&quot;font-size: 16px;&quot;&gt;crm_sales_details&lt;/font&gt;" style="swimlane;fontStyle=0;childLayout=stackLayout;horizontal=1;startSize=30;horizontalStack=0;resizeParent=1;resizeParentMax=0;resizeLast=0;collapsible=1;marginBottom=0;whiteSpace=wrap;html=1;rounded=1;glass=0;shadow=0;fillColor=#dae8fc;strokeColor=#6c8ebf;" parent="1" vertex="1">
          <mxGeometry x="30" y="230" width="140" height="100" as="geometry" />
        </mxCell>
        <mxCell id="i0fOB9PTpOnXMcYM55Mr-2" value="&lt;font style=&quot;font-size: 15px;&quot;&gt;prd_key&lt;/font&gt;" style="text;strokeColor=none;fillColor=none;align=left;verticalAlign=middle;spacingLeft=4;spacingRight=4;overflow=hidden;points=[[0,0.5],[1,0.5]];portConstraint=eastwest;rotatable=0;whiteSpace=wrap;html=1;" parent="i0fOB9PTpOnXMcYM55Mr-1" vertex="1">
          <mxGeometry y="30" width="140" height="30" as="geometry" />
        </mxCell>
        <mxCell id="i0fOB9PTpOnXMcYM55Mr-16" value="&lt;font style=&quot;font-size: 15px;&quot;&gt;cst_id&lt;/font&gt;" style="text;strokeColor=none;fillColor=none;align=left;verticalAlign=middle;spacingLeft=4;spacingRight=4;overflow=hidden;points=[[0,0.5],[1,0.5]];portConstraint=eastwest;rotatable=0;whiteSpace=wrap;html=1;" parent="i0fOB9PTpOnXMcYM55Mr-1" vertex="1">
          <mxGeometry y="60" width="140" height="30" as="geometry" />
        </mxCell>
        <mxCell id="b2Dk0qM_iyM4WZe1P1aA-4" value="&lt;b&gt;&lt;font style=&quot;font-size: 14px;&quot;&gt;SALES&lt;/font&gt;&lt;/b&gt;" style="rounded=1;whiteSpace=wrap;html=1;fillColor=#e1d5e7;strokeColor=#9673a6;rotation=0;" vertex="1" parent="i0fOB9PTpOnXMcYM55Mr-1">
          <mxGeometry y="90" width="140" height="10" as="geometry" />
        </mxCell>
        <mxCell id="i0fOB9PTpOnXMcYM55Mr-6" value="&lt;font style=&quot;font-size: 16px;&quot;&gt;crm_cust_info&lt;/font&gt;" style="swimlane;fontStyle=0;childLayout=stackLayout;horizontal=1;startSize=30;horizontalStack=0;resizeParent=1;resizeParentMax=0;resizeLast=0;collapsible=1;marginBottom=0;whiteSpace=wrap;html=1;rounded=1;glass=0;shadow=0;fillColor=#dae8fc;strokeColor=#6c8ebf;" parent="1" vertex="1">
          <mxGeometry x="270" y="340" width="140" height="105" as="geometry" />
        </mxCell>
        <mxCell id="i0fOB9PTpOnXMcYM55Mr-7" value="&lt;font style=&quot;font-size: 15px;&quot;&gt;cst_id&lt;/font&gt;" style="text;strokeColor=none;fillColor=none;align=left;verticalAlign=middle;spacingLeft=4;spacingRight=4;overflow=hidden;points=[[0,0.5],[1,0.5]];portConstraint=eastwest;rotatable=0;whiteSpace=wrap;html=1;" parent="i0fOB9PTpOnXMcYM55Mr-6" vertex="1">
          <mxGeometry y="30" width="140" height="30" as="geometry" />
        </mxCell>
        <mxCell id="i0fOB9PTpOnXMcYM55Mr-22" value="&lt;font style=&quot;font-size: 15px;&quot;&gt;cst_key&lt;/font&gt;" style="text;strokeColor=none;fillColor=none;align=left;verticalAlign=middle;spacingLeft=4;spacingRight=4;overflow=hidden;points=[[0,0.5],[1,0.5]];portConstraint=eastwest;rotatable=0;whiteSpace=wrap;html=1;" parent="i0fOB9PTpOnXMcYM55Mr-6" vertex="1">
          <mxGeometry y="60" width="140" height="30" as="geometry" />
        </mxCell>
        <mxCell id="b2Dk0qM_iyM4WZe1P1aA-5" value="&lt;b&gt;&lt;font&gt;CUSTOMER&lt;/font&gt;&lt;/b&gt;" style="rounded=1;whiteSpace=wrap;html=1;fillColor=#e1d5e7;strokeColor=#9673a6;" vertex="1" parent="i0fOB9PTpOnXMcYM55Mr-6">
          <mxGeometry y="90" width="140" height="15" as="geometry" />
        </mxCell>
        <mxCell id="i0fOB9PTpOnXMcYM55Mr-8" value="&lt;font style=&quot;font-size: 16px;&quot;&gt;crm_cust_info&lt;/font&gt;" style="swimlane;fontStyle=0;childLayout=stackLayout;horizontal=1;startSize=30;horizontalStack=0;resizeParent=1;resizeParentMax=0;resizeLast=0;collapsible=1;marginBottom=0;whiteSpace=wrap;html=1;rounded=1;glass=0;shadow=0;fillColor=#dae8fc;strokeColor=#6c8ebf;" parent="1" vertex="1">
          <mxGeometry x="270" y="160" width="140" height="75" as="geometry" />
        </mxCell>
        <mxCell id="i0fOB9PTpOnXMcYM55Mr-9" value="&lt;font style=&quot;font-size: 15px;&quot;&gt;prd_key&lt;/font&gt;" style="text;strokeColor=none;fillColor=none;align=left;verticalAlign=middle;spacingLeft=4;spacingRight=4;overflow=hidden;points=[[0,0.5],[1,0.5]];portConstraint=eastwest;rotatable=0;whiteSpace=wrap;html=1;" parent="i0fOB9PTpOnXMcYM55Mr-8" vertex="1">
          <mxGeometry y="30" width="140" height="30" as="geometry" />
        </mxCell>
        <mxCell id="b2Dk0qM_iyM4WZe1P1aA-1" value="&lt;b&gt;&lt;font&gt;PRODUCT&lt;/font&gt;&lt;/b&gt;" style="rounded=1;whiteSpace=wrap;html=1;fillColor=#e1d5e7;strokeColor=#9673a6;" vertex="1" parent="i0fOB9PTpOnXMcYM55Mr-8">
          <mxGeometry y="60" width="140" height="15" as="geometry" />
        </mxCell>
        <mxCell id="i0fOB9PTpOnXMcYM55Mr-10" value="&lt;h1 style=&quot;margin-top: 0px;&quot;&gt;Integration Model&lt;/h1&gt;" style="text;html=1;whiteSpace=wrap;overflow=hidden;rounded=0;" parent="1" vertex="1">
          <mxGeometry x="10" y="30" width="210" height="30" as="geometry" />
        </mxCell>
        <mxCell id="i0fOB9PTpOnXMcYM55Mr-11" value="Current &amp;amp; History Product Information" style="text;html=1;align=center;verticalAlign=middle;whiteSpace=wrap;rounded=0;" parent="1" vertex="1">
          <mxGeometry x="280" y="140" width="120" height="10" as="geometry" />
        </mxCell>
        <mxCell id="i0fOB9PTpOnXMcYM55Mr-12" value="Customer Information" style="text;html=1;align=center;verticalAlign=middle;whiteSpace=wrap;rounded=0;" parent="1" vertex="1">
          <mxGeometry x="270" y="330" width="140" height="10" as="geometry" />
        </mxCell>
        <mxCell id="i0fOB9PTpOnXMcYM55Mr-13" value="Transactional Records about Sales &amp;amp; Orders" style="text;html=1;align=center;verticalAlign=middle;whiteSpace=wrap;rounded=0;" parent="1" vertex="1">
          <mxGeometry x="30" y="210" width="140" height="10" as="geometry" />
        </mxCell>
        <mxCell id="i0fOB9PTpOnXMcYM55Mr-18" style="edgeStyle=orthogonalEdgeStyle;rounded=0;orthogonalLoop=1;jettySize=auto;html=1;entryX=0;entryY=0.5;entryDx=0;entryDy=0;" parent="1" source="i0fOB9PTpOnXMcYM55Mr-16" target="i0fOB9PTpOnXMcYM55Mr-7" edge="1">
          <mxGeometry relative="1" as="geometry" />
        </mxCell>
        <mxCell id="i0fOB9PTpOnXMcYM55Mr-21" style="edgeStyle=orthogonalEdgeStyle;rounded=0;orthogonalLoop=1;jettySize=auto;html=1;exitX=1;exitY=0.5;exitDx=0;exitDy=0;entryX=0;entryY=0.5;entryDx=0;entryDy=0;" parent="1" source="i0fOB9PTpOnXMcYM55Mr-2" target="i0fOB9PTpOnXMcYM55Mr-9" edge="1">
          <mxGeometry relative="1" as="geometry" />
        </mxCell>
        <mxCell id="i0fOB9PTpOnXMcYM55Mr-24" value="Extra Customer Information" style="text;html=1;align=center;verticalAlign=middle;whiteSpace=wrap;rounded=0;" parent="1" vertex="1">
          <mxGeometry x="650" y="250" width="140" height="10" as="geometry" />
        </mxCell>
        <mxCell id="i0fOB9PTpOnXMcYM55Mr-25" value="&lt;font style=&quot;font-size: 16px;&quot;&gt;erm_cust_az12&lt;/font&gt;" style="swimlane;fontStyle=0;childLayout=stackLayout;horizontal=1;startSize=30;horizontalStack=0;resizeParent=1;resizeParentMax=0;resizeLast=0;collapsible=1;marginBottom=0;whiteSpace=wrap;html=1;rounded=1;glass=0;shadow=0;fillColor=#fff2cc;strokeColor=#d6b656;" parent="1" vertex="1">
          <mxGeometry x="650" y="270" width="140" height="75" as="geometry" />
        </mxCell>
        <mxCell id="i0fOB9PTpOnXMcYM55Mr-26" value="&lt;font style=&quot;font-size: 15px;&quot;&gt;cid&lt;/font&gt;" style="text;strokeColor=none;fillColor=none;align=left;verticalAlign=middle;spacingLeft=4;spacingRight=4;overflow=hidden;points=[[0,0.5],[1,0.5]];portConstraint=eastwest;rotatable=0;whiteSpace=wrap;html=1;" parent="i0fOB9PTpOnXMcYM55Mr-25" vertex="1">
          <mxGeometry y="30" width="140" height="30" as="geometry" />
        </mxCell>
        <mxCell id="b2Dk0qM_iyM4WZe1P1aA-8" value="&lt;b&gt;&lt;font&gt;CUSTOMER&lt;/font&gt;&lt;/b&gt;" style="rounded=1;whiteSpace=wrap;html=1;fillColor=#e1d5e7;strokeColor=#9673a6;" vertex="1" parent="i0fOB9PTpOnXMcYM55Mr-25">
          <mxGeometry y="60" width="140" height="15" as="geometry" />
        </mxCell>
        <mxCell id="i0fOB9PTpOnXMcYM55Mr-28" style="edgeStyle=orthogonalEdgeStyle;rounded=0;orthogonalLoop=1;jettySize=auto;html=1;exitX=0;exitY=0.5;exitDx=0;exitDy=0;entryX=1;entryY=0.5;entryDx=0;entryDy=0;" parent="1" source="i0fOB9PTpOnXMcYM55Mr-26" target="i0fOB9PTpOnXMcYM55Mr-22" edge="1">
          <mxGeometry relative="1" as="geometry" />
        </mxCell>
        <mxCell id="i0fOB9PTpOnXMcYM55Mr-29" value="Location of Customers" style="text;html=1;align=center;verticalAlign=middle;whiteSpace=wrap;rounded=0;" parent="1" vertex="1">
          <mxGeometry x="650" y="360" width="140" height="10" as="geometry" />
        </mxCell>
        <mxCell id="i0fOB9PTpOnXMcYM55Mr-30" value="&lt;font style=&quot;font-size: 16px;&quot;&gt;erm_loc_a101&lt;/font&gt;" style="swimlane;fontStyle=0;childLayout=stackLayout;horizontal=1;startSize=30;horizontalStack=0;resizeParent=1;resizeParentMax=0;resizeLast=0;collapsible=1;marginBottom=0;whiteSpace=wrap;html=1;rounded=1;glass=0;shadow=0;fillColor=#fff2cc;strokeColor=#d6b656;" parent="1" vertex="1">
          <mxGeometry x="650" y="380" width="140" height="75" as="geometry" />
        </mxCell>
        <mxCell id="i0fOB9PTpOnXMcYM55Mr-31" value="&lt;font style=&quot;font-size: 15px;&quot;&gt;cid&lt;/font&gt;" style="text;strokeColor=none;fillColor=none;align=left;verticalAlign=middle;spacingLeft=4;spacingRight=4;overflow=hidden;points=[[0,0.5],[1,0.5]];portConstraint=eastwest;rotatable=0;whiteSpace=wrap;html=1;" parent="i0fOB9PTpOnXMcYM55Mr-30" vertex="1">
          <mxGeometry y="30" width="140" height="30" as="geometry" />
        </mxCell>
        <mxCell id="b2Dk0qM_iyM4WZe1P1aA-6" value="&lt;b&gt;&lt;font&gt;CUSTOMER&lt;/font&gt;&lt;/b&gt;" style="rounded=1;whiteSpace=wrap;html=1;fillColor=#e1d5e7;strokeColor=#9673a6;" vertex="1" parent="i0fOB9PTpOnXMcYM55Mr-30">
          <mxGeometry y="60" width="140" height="15" as="geometry" />
        </mxCell>
        <mxCell id="i0fOB9PTpOnXMcYM55Mr-32" style="edgeStyle=orthogonalEdgeStyle;rounded=0;orthogonalLoop=1;jettySize=auto;html=1;exitX=0;exitY=0.5;exitDx=0;exitDy=0;entryX=1;entryY=0.5;entryDx=0;entryDy=0;" parent="1" source="i0fOB9PTpOnXMcYM55Mr-31" target="i0fOB9PTpOnXMcYM55Mr-22" edge="1">
          <mxGeometry relative="1" as="geometry" />
        </mxCell>
        <mxCell id="i0fOB9PTpOnXMcYM55Mr-33" value="Category Information" style="text;html=1;align=center;verticalAlign=middle;whiteSpace=wrap;rounded=0;" parent="1" vertex="1">
          <mxGeometry x="650" y="140" width="140" height="10" as="geometry" />
        </mxCell>
        <mxCell id="i0fOB9PTpOnXMcYM55Mr-34" value="&lt;font style=&quot;font-size: 16px;&quot;&gt;erm_px_cat_g1v2&lt;/font&gt;" style="swimlane;fontStyle=0;childLayout=stackLayout;horizontal=1;startSize=30;horizontalStack=0;resizeParent=1;resizeParentMax=0;resizeLast=0;collapsible=1;marginBottom=0;whiteSpace=wrap;html=1;rounded=1;glass=0;shadow=0;fillColor=#fff2cc;strokeColor=#d6b656;" parent="1" vertex="1">
          <mxGeometry x="650" y="160" width="140" height="75" as="geometry" />
        </mxCell>
        <mxCell id="i0fOB9PTpOnXMcYM55Mr-35" value="&lt;font style=&quot;font-size: 15px;&quot;&gt;id&lt;/font&gt;" style="text;strokeColor=none;fillColor=none;align=left;verticalAlign=middle;spacingLeft=4;spacingRight=4;overflow=hidden;points=[[0,0.5],[1,0.5]];portConstraint=eastwest;rotatable=0;whiteSpace=wrap;html=1;" parent="i0fOB9PTpOnXMcYM55Mr-34" vertex="1">
          <mxGeometry y="30" width="140" height="30" as="geometry" />
        </mxCell>
        <mxCell id="b2Dk0qM_iyM4WZe1P1aA-2" value="&lt;b&gt;&lt;font style=&quot;font-size: 14px;&quot;&gt;PRODUCT&lt;/font&gt;&lt;/b&gt;" style="rounded=1;whiteSpace=wrap;html=1;fillColor=#e1d5e7;strokeColor=#9673a6;rotation=0;" vertex="1" parent="i0fOB9PTpOnXMcYM55Mr-34">
          <mxGeometry y="60" width="140" height="15" as="geometry" />
        </mxCell>
        <mxCell id="i0fOB9PTpOnXMcYM55Mr-36" style="edgeStyle=orthogonalEdgeStyle;rounded=0;orthogonalLoop=1;jettySize=auto;html=1;exitX=0;exitY=0.5;exitDx=0;exitDy=0;entryX=1;entryY=0.5;entryDx=0;entryDy=0;" parent="1" source="i0fOB9PTpOnXMcYM55Mr-35" target="i0fOB9PTpOnXMcYM55Mr-9" edge="1">
          <mxGeometry relative="1" as="geometry" />
        </mxCell>
        <mxCell id="i0fOB9PTpOnXMcYM55Mr-40" value="&lt;font style=&quot;font-size: 20px;&quot;&gt;&lt;b&gt;CRM&lt;/b&gt;&lt;/font&gt;" style="rounded=1;whiteSpace=wrap;html=1;fillColor=#dae8fc;strokeColor=#6c8ebf;" parent="1" vertex="1">
          <mxGeometry x="40" y="90" width="120" height="60" as="geometry" />
        </mxCell>
        <mxCell id="i0fOB9PTpOnXMcYM55Mr-41" value="&lt;font style=&quot;font-size: 20px;&quot;&gt;&lt;b&gt;ERM&lt;/b&gt;&lt;/font&gt;" style="rounded=1;whiteSpace=wrap;html=1;fillColor=#fff2cc;strokeColor=#d6b656;arcSize=0;" parent="1" vertex="1">
          <mxGeometry x="660" y="70" width="120" height="60" as="geometry" />
        </mxCell>
      </root>
    </mxGraphModel>
  </diagram>
</mxfile>
